<svg width="20" height="20" viewBox="0 0 20 20" fill="none" xmlns="http://www.w3.org/2000/svg">
<path d="M10 12C9.68519 12 9.4213 11.9042 9.20833 11.7125C8.99537 11.5208 8.88889 11.2833 8.88889 11C8.88889 10.7167 8.99537 10.4792 9.20833 10.2875C9.4213 10.0958 9.68519 10 10 10C10.3148 10 10.5787 10.0958 10.7917 10.2875C11.0046 10.4792 11.1111 10.7167 11.1111 11C11.1111 11.2833 11.0046 11.5208 10.7917 11.7125C10.5787 11.9042 10.3148 12 10 12ZM5.55556 12C5.24074 12 4.97685 11.9042 4.76389 11.7125C4.55093 11.5208 4.44444 11.2833 4.44444 11C4.44444 10.7167 4.55093 10.4792 4.76389 10.2875C4.97685 10.0958 5.24074 10 5.55556 10C5.87037 10 6.13426 10.0958 6.34722 10.2875C6.56019 10.4792 6.66667 10.7167 6.66667 11C6.66667 11.2833 6.56019 11.5208 6.34722 11.7125C6.13426 11.9042 5.87037 12 5.55556 12ZM14.4444 12C14.1296 12 13.8657 11.9042 13.6528 11.7125C13.4398 11.5208 13.3333 11.2833 13.3333 11C13.3333 10.7167 13.4398 10.4792 13.6528 10.2875C13.8657 10.0958 14.1296 10 14.4444 10C14.7593 10 15.0231 10.0958 15.2361 10.2875C15.4491 10.4792 15.5556 10.7167 15.5556 11C15.5556 11.2833 15.4491 11.5208 15.2361 11.7125C15.0231 11.9042 14.7593 12 14.4444 12ZM10 16C9.68519 16 9.4213 15.9042 9.20833 15.7125C8.99537 15.5208 8.88889 15.2833 8.88889 15C8.88889 14.7167 8.99537 14.4792 9.20833 14.2875C9.4213 14.0958 9.68519 14 10 14C10.3148 14 10.5787 14.0958 10.7917 14.2875C11.0046 14.4792 11.1111 14.7167 11.1111 15C11.1111 15.2833 11.0046 15.5208 10.7917 15.7125C10.5787 15.9042 10.3148 16 10 16ZM5.55556 16C5.24074 16 4.97685 15.9042 4.76389 15.7125C4.55093 15.5208 4.44444 15.2833 4.44444 15C4.44444 14.7167 4.55093 14.4792 4.76389 14.2875C4.97685 14.0958 5.24074 14 5.55556 14C5.87037 14 6.13426 14.0958 6.34722 14.2875C6.56019 14.4792 6.66667 14.7167 6.66667 15C6.66667 15.2833 6.56019 15.5208 6.34722 15.7125C6.13426 15.9042 5.87037 16 5.55556 16ZM14.4444 16C14.1296 16 13.8657 15.9042 13.6528 15.7125C13.4398 15.5208 13.3333 15.2833 13.3333 15C13.3333 14.7167 13.4398 14.4792 13.6528 14.2875C13.8657 14.0958 14.1296 14 14.4444 14C14.7593 14 15.0231 14.0958 15.2361 14.2875C15.4491 14.4792 15.5556 14.7167 15.5556 15C15.5556 15.2833 15.4491 15.5208 15.2361 15.7125C15.0231 15.9042 14.7593 16 14.4444 16ZM1.66667 20C1.22222 20 0.833333 19.85 0.5 19.55C0.166667 19.25 0 18.9 0 18.5V3C0 2.6 0.166667 2.25 0.5 1.95C0.833333 1.65 1.22222 1.5 1.66667 1.5H3.47222V0H5.27778V1.5H14.7222V0H16.5278V1.5H18.3333C18.7778 1.5 19.1667 1.65 19.5 1.95C19.8333 2.25 20 2.6 20 3V18.5C20 18.9 19.8333 19.25 19.5 19.55C19.1667 19.85 18.7778 20 18.3333 20H1.66667ZM1.66667 18.5H18.3333V7.75H1.66667V18.5Z" fill="#BF2604"/>
</svg>
